<?xml version="1.0" standalone="no"?>
<!DOCTYPE svg PUBLIC "-//W3C//DTD SVG 1.1//EN" "http://www.w3.org/Graphics/SVG/1.1/DTD/svg11.dtd">
<svg width="100%" height="100%" viewBox="0 0 7000 1250" version="1.1" xmlns="http://www.w3.org/2000/svg" xmlns:xlink="http://www.w3.org/1999/xlink" xml:space="preserve" style="fill-rule:evenodd;clip-rule:evenodd;stroke-linejoin:round;stroke-miterlimit:1.41421;">
    <g transform="matrix(12.1358,0,0,12.1358,-106.902,-1771.85)">
        <path d="M109.256,164.331L103.573,180.441L61.947,180.441C58.379,180.441 56.087,181.664 55.071,184.111C54.055,186.557 52.192,191.605 49.48,199.254C46.424,207.865 44.896,212.564 44.896,213.35C44.896,215.151 46.31,216.052 49.136,216.052L68.465,216.052C72.086,216.052 74.378,214.794 75.341,212.277C75.571,212.003 76.136,210.718 77.037,208.421L56.012,208.421L61.695,192.311L101.122,192.311L89.755,224.558C88.801,227.234 87.644,229.142 86.284,230.281C84.756,231.535 82.663,232.162 80.004,232.162L35.411,232.162C32.187,232.162 29.529,231.451 27.435,230.029C25.006,228.386 23.792,225.975 23.792,222.796C23.792,221.321 24.132,219.621 24.812,217.695C28.99,205.268 34.302,190.006 40.75,171.909C41.712,169.295 42.843,167.422 44.141,166.292C45.669,164.985 47.763,164.331 50.421,164.331L109.256,164.331" style="fill:white;fill-rule:nonzero;"/>
    </g>
    <g transform="matrix(12.1358,0,0,12.1358,-106.902,-1771.85)">
        <path d="M138.751,164.331L114.838,232.162L96.357,232.162L120.27,164.331L138.751,164.331" style="fill:white;fill-rule:nonzero;"/>
    </g>
    <g transform="matrix(12.1358,0,0,12.1358,-106.902,-1771.85)">
        <path d="M196.668,232.162L178.439,232.162L194.548,185.701C194.778,185.135 194.893,184.544 194.893,183.925C194.893,181.603 193.877,180.441 191.846,180.441L167.337,180.441C164.06,180.441 161.799,182.194 160.554,185.701L144.444,232.162L125.962,232.162L149.531,164.331L258.392,164.331C265.122,164.331 268.487,167.224 268.487,173.009C268.487,175.446 267.838,178.511 266.539,182.203L248.906,232.162L230.676,232.162L246.773,185.701C247.003,185.135 247.117,184.544 247.117,183.925C247.117,181.603 246.102,180.441 244.07,180.441L219.561,180.441C216.284,180.441 214.023,182.194 212.778,185.701L196.668,232.162" style="fill:white;fill-rule:nonzero;"/>
    </g>
    <g transform="matrix(12.1358,0,0,12.1358,-106.902,-1771.85)">
        <path d="M345.636,177.858L326.558,232.162L269.67,232.162C266.561,232.162 264.243,231.146 262.715,229.115C261.47,227.357 260.847,225.149 260.847,222.491C260.847,220.689 261.13,219.024 261.695,217.496L268.981,196.551C270.739,191.464 274.329,188.92 279.752,188.92L323.339,188.92L324.611,184.892C324.779,184.38 324.862,183.894 324.862,183.435C324.862,181.439 323.591,180.441 321.047,180.441L274.506,180.441L280.097,164.331L337.422,164.331C343.41,164.331 346.404,167.339 346.404,173.353C346.404,174.943 346.148,176.445 345.636,177.858ZM317.748,205.03L288.576,205.03C285.917,205.03 284.164,206.191 283.316,208.514L282.216,211.323C281.987,212.047 281.872,212.714 281.872,213.323C281.872,215.143 282.835,216.052 284.76,216.052L313.76,216.052L317.748,205.03" style="fill:white;fill-rule:nonzero;"/>
    </g>
    <g transform="matrix(12.1358,0,0,12.1358,-106.902,-1771.85)">
        <path d="M423.955,182.283L406.321,232.162L388.092,232.162L404.202,185.701C404.431,185.135 404.546,184.57 404.546,184.005C404.546,181.629 403.53,180.441 401.499,180.441L376.99,180.441C373.651,180.441 371.39,182.141 370.207,185.542L354.084,232.162L335.602,232.162L359.171,164.331L415.728,164.331C422.511,164.331 425.902,167.255 425.902,173.102C425.902,175.539 425.253,178.6 423.955,182.283" style="fill:white;fill-rule:nonzero;"/>
    </g>
    <g transform="matrix(12.1358,0,0,12.1358,-106.902,-1771.85)">
        <path d="M484.972,164.331L455.72,216.052L483.528,216.052L477.738,232.162L427.117,232.162L456.369,180.441L428.667,180.441L434.523,164.331L484.972,164.331" style="fill:rgb(255,165,0);fill-rule:nonzero;"/>
    </g>
    <g transform="matrix(12.1358,0,0,12.1358,-106.902,-1771.85)">
        <path d="M569.257,182.283L553.916,225.869C553.121,228.077 551.677,229.751 549.583,230.89C547.949,231.738 546.17,232.162 544.244,232.162L495.146,232.162C488.363,232.162 484.972,229.239 484.972,223.392C484.972,220.786 485.621,217.753 486.919,214.29L488.363,210.713L502.274,170.717C503.007,168.5 504.42,166.826 506.513,165.696C508.209,164.786 510.015,164.331 511.932,164.331L561.03,164.331C567.76,164.331 571.125,167.255 571.125,173.102C571.125,175.539 570.502,178.6 569.257,182.283ZM549.491,185.687C549.72,185.122 549.835,184.557 549.835,183.992C549.835,181.625 548.819,180.441 546.788,180.441L522.199,180.441C518.923,180.441 516.688,182.132 515.496,185.515L506.686,210.806C506.456,211.371 506.341,211.963 506.341,212.581C506.341,214.895 507.357,216.052 509.388,216.052L533.977,216.052C536.017,216.052 537.572,215.544 538.64,214.529C539.32,213.849 539.97,212.692 540.588,211.058L549.491,185.687" style="fill:white;fill-rule:nonzero;"/>
    </g>
</svg>
